[Header]
FileType HTR
DataType HTRS
FileVersion 1
NumSegments 22
NumFrames 8
DataFrameRate 24
EulerRotationOrder ZYX
CalibrationUnits mm
RotationUnits Degrees
GlobalAxisofGravity Y
BoneLengthAxis Y
ScaleFactor 1.0
[SegmentNames&Hierarchy]
reference	GLOBAL
Hips	reference
Spine	Hips
Spine1	Spine
Neck	Spine1
Head	Neck
LeftShoulder	Spine1
LeftArm	LeftShoulder
LeftForeArm	LeftArm
LeftHand	LeftForeArm
RightShoulder	Spine1
RightArm	RightShoulder
RightForeArm	RightArm
RightHand	RightForeArm
LeftUpLeg	Hips
LeftLeg	LeftUpLeg
LeftFoot	LeftLeg
LeftToeBase	LeftFoot
RightUpLeg	Hips
RightLeg	RightUpLeg
RightFoot	RightLeg
RightToeBase	RightFoot
[BasePosition]
reference	0	0	0	0	0	0	1
Hips	0	0	0	0	0	0	1
Spine	0	0	0	0	-0	90	1
Spine1	0	0	0	0	0	0	1
Neck	0	0	0	-7.352430803	-7.352430803	90	1
Head	0	0	0	0	-0	90	1
LeftShoulder	0	0	0	0	0	0	1
LeftArm	0	0	0	0	0	0	1
LeftForeArm	0	0	0	0	0	0	1
LeftHand	0	0	0	0	0	0	1
RightShoulder	0	0	0	0	-0	180	1
RightArm	0	0	0	0	-0	180	1
RightForeArm	0	0	0	0	-0	180	1
RightHand	0	0	0	0	-0	180	1
LeftUpLeg	0	0	0	0	-0	-90	1
LeftLeg	0	0	0	0	-0	-90	1
LeftFoot	0	0	0	66.57150701	-66.57150701	-90	1
LeftToeBase	0	0	0	0	-90	0	1
RightUpLeg	0	0	0	0	-0	-90	1
RightLeg	0	0	0	0	-0	-90	1
RightFoot	0	0	0	66.57150701	-66.57150701	-90	1
RightToeBase	0	0	0	0	-90	0	1
[reference]
28	0	0	0	0	-0	0	1.0
29	0	0	0	0	-0	0	1.0
30	0	0	0	0	-0	0	1.0
31	0	0	0	0	-0	0	1.0
32	0	0	0	0	-0	0	1.0
33	0	0	0	0	-0	0	1.0
34	0	0	0	0	-0	0	1.0
35	0	0	0	0	-0	0	1.0
[Hips]
28	6.488604546	8.146300316	0.6815653443	0.7856092453	-117.8366165	-4.757649422	1.0
29	6.061053276	8.028098106	0.6715712547	0.5251526833	-118.070488	-4.013038635	1.0
30	5.596618652	7.928277969	0.66185534	0.7941375375	-118.4471512	-2.061193705	1.0
31	5.07818985	7.907581806	0.6522738338	4.3646698	-116.9216156	-3.648757935	1.0
32	4.479571342	7.948940277	0.642683506	7.122322083	-113.7291336	-7.487995625	1.0
33	3.963899136	8.138784409	0.6329410076	3.684625864	-108.9362793	-6.097495079	1.0
34	3.556785107	8.352371216	0.622902751	-0.08067798615	-104.1135101	-5.967264175	1.0
35	3.327117443	8.570993423	0.6124254465	-1.586357355	-101.4506378	-6.913338661	1.0
[Spine]
28	0	0.7478299737	0	-12.72757912	1.564415455	-86.9562912	1.0
29	0	0.7478299737	0	-12.84149933	2.630325317	-86.7111969	1.0
30	0	0.7478299737	0	-13.41608047	4.211705685	-86.59086609	1.0
31	0	0.7478299737	0	-14.43152714	5.530207634	-88.3740387	1.0
32	0	0.7478299737	0	-15.03132439	6.298371315	-89.71153259	1.0
33	0	0.7478299737	0	-13.47005939	6.082496643	-88.44192505	1.0
34	0	0.7478299737	0	-10.2176466	3.394271851	-88.42037964	1.0
35	0	0.7478299737	0	-6.710712433	0.9195164442	-89.20327759	1.0
[Spine1]
28	0	2.049309969	0	11.94112206	0.6320590973	-2.107860088	1.0
29	0	2.049309969	0	11.40400505	0.944186151	-1.927907348	1.0
30	0	2.049309969	0	8.607786179	1.342206836	-1.197923899	1.0
31	0	2.049309969	0	4.512734413	1.786221862	-0.8786149621	1.0
32	0	2.049309969	0	1.081833243	2.193072319	-1.869618297	1.0
33	0	2.049309969	0	-1.50123477	1.933048248	-2.554098845	1.0
34	0	2.049309969	0	-2.844701767	1.05121994	-0.4819099903	1.0
35	0	2.049309969	0	-3.030582666	0.3429651558	1.527144074	1.0
[Neck]
28	0	2.231709957	0	6.929410934	13.8337326	-89.55938721	1.0
29	0	2.231709957	0	5.437448025	13.27348995	-89.34632874	1.0
30	0	2.231709957	0	3.889486313	12.51543045	-89.03874207	1.0
31	0	2.231709957	0	4.526337624	10.76290989	-88.42890167	1.0
32	0	2.231709957	0	8.985786438	7.976772308	-87.56576538	1.0
33	0	2.231709957	0	14.16749573	5.777911663	-88.04523468	1.0
34	0	2.231709957	0	20.01839447	5.134209633	-89.86069489	1.0
35	0	2.231709957	0	24.57528877	5.110531807	-90.99895477	1.0
[Head]
28	0	1.413589954	0.1823999882	-12.25081348	6.642419815	-95.63278198	1.0
29	0	1.413589954	0.1823999882	-12.34490585	6.098114967	-95.30496979	1.0
30	0	1.413589954	0.1823999882	-10.82174492	5.43556881	-94.63884735	1.0
31	0	1.413589954	0.1823999882	-8.459207535	3.799688339	-93.62443542	1.0
32	0	1.413589954	0.1823999882	-7.284294128	1.173324347	-92.9537735	1.0
33	0	1.413589954	0.1823999882	-7.950842381	-1.020647168	-93.11902618	1.0
34	0	1.413589954	0.1823999882	-11.53752232	-2.051949024	-93.55309296	1.0
35	0	1.413589954	0.1823999882	-15.04289246	-2.459635735	-93.28398132	1.0
[LeftShoulder]
28	0.3649300039	1.825889945	-0.04271000251	-8.891724586	-5.657312393	2.267672062	1.0
29	0.3649300039	1.825889945	-0.04271000251	-9.238007545	-5.452652931	2.767166138	1.0
30	0.3649300039	1.825889945	-0.04271000251	-9.367794037	-5.108287811	3.200677156	1.0
31	0.3649300039	1.825889945	-0.04271000251	-11.39540768	-4.876973152	3.923009872	1.0
32	0.3649300039	1.825889945	-0.04271000251	-13.77351952	-6.095367908	4.593510628	1.0
33	0.3649300039	1.825889945	-0.04271000251	-13.38906574	-8.626468658	4.880896091	1.0
34	0.3649300039	1.825889945	-0.04271000251	-15.34197807	-11.80344868	6.362755775	1.0
35	0.3649300039	1.825889945	-0.04271000251	-16.2020092	-15.57873726	7.297934532	1.0
[LeftArm]
28	1.24003005	0	0	26.69532967	11.38249302	-77.48918152	1.0
29	1.24003005	0	0	28.53879929	9.495035172	-75.76353455	1.0
30	1.24003005	0	0	31.08250237	6.177177906	-73.48966217	1.0
31	1.24003005	0	0	34.64482498	1.179113746	-70.65673828	1.0
32	1.24003005	0	0	37.76163101	-5.727695465	-67.54715729	1.0
33	1.24003005	0	0	39.14899063	-16.02426529	-64.4199295	1.0
34	1.24003005	0	0	40.55501175	-22.87904358	-63.53834152	1.0
35	1.24003005	0	0	42.8595314	-29.39962578	-63.39858627	1.0
[LeftForeArm]
28	2.847419977	0	0	-11.12691498	-31.23010635	-0.1876159012	1.0
29	2.847419977	0	0	-11.91592312	-34.39834976	1.352953792	1.0
30	2.847419977	0	0	-14.32305908	-40.00514221	5.197162151	1.0
31	2.847419977	0	0	-18.76112366	-46.45090485	11.6285162	1.0
32	2.847419977	0	0	-26.38352776	-53.9948082	22.40850449	1.0
33	2.847419977	0	0	-38.53671265	-56.60268402	39.65186691	1.0
34	2.847419977	0	0	-48.0759201	-50.88317108	55.71370697	1.0
35	2.847419977	0	0	-54.50946045	-39.04417419	65.64469147	1.0
[LeftHand]
28	2.258270025	0	0	-11.46987534	-11.01561832	3.013654232	1.0
29	2.258270025	0	0	-11.79061127	-11.78455448	2.852224827	1.0
30	2.258270025	0	0	-12.97493744	-11.67032433	5.33423996	1.0
31	2.258270025	0	0	-14.4274292	-10.83735847	7.07008791	1.0
32	2.258270025	0	0	-15.62073231	-8.832157135	9.861281395	1.0
33	2.258270025	0	0	-17.19946671	-7.361662865	9.848016739	1.0
34	2.258270025	0	0	-20.45025253	-7.114609718	9.677485466	1.0
35	2.258270025	0	0	-29.30894661	-8.192214012	7.839899063	1.0
[RightShoulder]
28	-0.3646599948	1.825889945	-0.04271000251	-6.086772919	9.855993271	177.5248566	1.0
29	-0.3646599948	1.825889945	-0.04271000251	-6.651278973	11.06330013	177.2427368	1.0
30	-0.3646599948	1.825889945	-0.04271000251	-7.892139435	11.71457767	176.7166443	1.0
31	-0.3646599948	1.825889945	-0.04271000251	-10.85017395	11.07921314	175.1165466	1.0
32	-0.3646599948	1.825889945	-0.04271000251	-12.47099876	9.943311691	174.5135803	1.0
33	-0.3646599948	1.825889945	-0.04271000251	-13.18001366	10.03714657	173.772171	1.0
34	-0.3646599948	1.825889945	-0.04271000251	-12.92515659	11.75693893	173.4938202	1.0
35	-0.3646599948	1.825889945	-0.04271000251	-13.11636639	14.9305315	173.0239563	1.0
[RightArm]
28	-1.24003005	0	0	33.98671722	-7.014204979	-102.4469681	1.0
29	-1.24003005	0	0	38.37368011	-4.224215508	-102.7878952	1.0
30	-1.24003005	0	0	41.17481613	-0.3738769293	-103.5014038	1.0
31	-1.24003005	0	0	41.46124268	3.602945805	-103.7642517	1.0
32	-1.24003005	0	0	40.92852783	9.61076355	-105.6231384	1.0
33	-1.24003005	0	0	41.85326004	16.61185646	-109.0847626	1.0
34	-1.24003005	0	0	44.8141861	24.76257324	-115.1881714	1.0
35	-1.24003005	0	0	42.08124161	31.01634407	-121.8828583	1.0
[RightForeArm]
28	-2.847419977	0	0	1.181728363	23.04930305	179.6775818	1.0
29	-2.847419977	0	0	-1.414705873	22.76198196	176.0693207	1.0
30	-2.847419977	0	0	-4.105406284	24.29396248	171.6820679	1.0
31	-2.847419977	0	0	-6.793693542	27.46880913	166.6828461	1.0
32	-2.847419977	0	0	-10.63645363	30.92737579	159.458786	1.0
33	-2.847419977	0	0	-17.16258621	32.56970596	147.8917694	1.0
34	-2.847419977	0	0	-23.47552872	30.87540054	134.8059235	1.0
35	-2.847419977	0	0	-26.83012009	30.22205544	126.2071686	1.0
[RightHand]
28	-2.258270025	0	0	0.6599065661	7.9874506	171.5585022	1.0
29	-2.258270025	0	0	-1.369819999	8.00644207	169.368927	1.0
30	-2.258270025	0	0	-3.212665558	7.886692524	166.9390564	1.0
31	-2.258270025	0	0	-4.576891422	7.82149601	164.7848511	1.0
32	-2.258270025	0	0	-5.933773041	6.991536617	163.0100555	1.0
33	-2.258270025	0	0	-8.426617622	5.817795277	162.954422	1.0
34	-2.258270025	0	0	-11.00340843	4.814888477	164.3469543	1.0
35	-2.258270025	0	0	-11.97034454	5.299321651	164.5076141	1.0
[LeftUpLeg]
28	0.9119900465	0	0	-22.5650959	-0.5427595377	98.05978394	1.0
29	0.9119900465	0	0	-24.68200111	-2.607116461	99.84415436	1.0
30	0.9119900465	0	0	-29.15780449	-4.330796242	103.3259506	1.0
31	0.9119900465	0	0	-34.32437515	-3.936415672	102.834465	1.0
32	0.9119900465	0	0	-32.91220093	-8.201992989	101.0190201	1.0
33	0.9119900465	0	0	-26.34484863	-9.59589386	96.64422607	1.0
34	0.9119900465	0	0	-18.41863823	-7.020858288	90.32657623	1.0
35	0.9119900465	0	0	-11.82355976	-3.958574533	87.01097107	1.0
[LeftLeg]
28	0	-4.371409893	0	4.447905064	12.8728199	86.0645752	1.0
29	0	-4.371409893	0	9.557442665	15.41746712	83.84687805	1.0
30	0	-4.371409893	0	18.53949928	16.13696098	78.94471741	1.0
31	0	-4.371409893	0	28.87116814	12.19204807	74.27217865	1.0
32	0	-4.371409893	0	31.34908104	12.75500298	71.873909	1.0
33	0	-4.371409893	0	31.15453339	11.42430115	75.49346161	1.0
34	0	-4.371409893	0	29.66313171	5.644237518	80.76951599	1.0
35	0	-4.371409893	0	24.67392731	2.573821545	84.3030014	1.0
[LeftFoot]
28	0	-3.918009996	0	-65.88798523	101.8808289	-39.22028351	1.0
29	0	-3.918009996	0	-74.04598236	110.4770889	-43.66275024	1.0
30	0	-3.918009996	0	-82.98980713	118.7305832	-48.52608109	1.0
31	0	-3.918009996	0	-81.15602112	120.807579	-37.68706512	1.0
32	0	-3.918009996	0	-84.2183609	121.3432617	-37.061409	1.0
33	0	-3.918009996	0	-93.55942535	119.2997742	-46.20747375	1.0
34	0	-3.918009996	0	-100.383194	117.3046875	-56.63420486	1.0
35	0	-3.918009996	0	-105.2090454	115.4819641	-67.86637878	1.0
[LeftToeBase]
28	0	-0.5927900076	1.367989898	0	0	0	1.0
29	0	-0.5927900076	1.367989898	0	0	0	1.0
30	0	-0.5927900076	1.367989898	0	0	0	1.0
31	0	-0.5927900076	1.367989898	0	0	0	1.0
32	0	-0.5927900076	1.367989898	0	0	0	1.0
33	0	-0.5927900076	1.367989898	0	0	0	1.0
34	0	-0.5927900076	1.367989898	0	0	0	1.0
35	0	-0.5927900076	1.367989898	0	0	0	1.0
[RightUpLeg]
28	-0.9119900465	0	0	25.39300537	-18.01770592	79.50030518	1.0
29	-0.9119900465	0	0	27.33351898	-18.09655952	77.69467926	1.0
30	-0.9119900465	0	0	30.77906036	-17.86587143	74.77150726	1.0
31	-0.9119900465	0	0	32.42978287	-18.62239075	72.58335876	1.0
32	-0.9119900465	0	0	33.87176895	-20.08607483	71.26257324	1.0
33	-0.9119900465	0	0	31.12179565	-24.31533051	74.10659027	1.0
34	-0.9119900465	0	0	20.51847458	-22.73617172	82.58628845	1.0
35	-0.9119900465	0	0	1.806920528	-20.98365402	90.86974335	1.0
[RightLeg]
28	0	-4.371409893	0	14.88754082	-0.144004792	83.8632431	1.0
29	0	-4.371409893	0	15.8689661	0.2897506654	83.04802704	1.0
30	0	-4.371409893	0	10.84552002	-1.137574434	85.58921051	1.0
31	0	-4.371409893	0	9.747343063	-1.618876457	85.06547546	1.0
32	0	-4.371409893	0	12.82235718	0.8091139793	82.11405182	1.0
33	0	-4.371409893	0	24.05205154	1.996031642	72.87905884	1.0
34	0	-4.371409893	0	46.60583496	8.888667107	69.24656677	1.0
35	0	-4.371409893	0	70.03556824	12.59108829	60.34494781	1.0
[RightFoot]
28	0	-3.918009996	0	63.15703583	54.2996254	119.4146729	1.0
29	0	-3.918009996	0	65.76649475	50.6646843	121.7396317	1.0
30	0	-3.918009996	0	74.31111145	47.9261055	125.9073486	1.0
31	0	-3.918009996	0	81.04664612	37.95585632	122.2270508	1.0
32	0	-3.918009996	0	85.33930969	40.25193024	116.7438126	1.0
33	0	-3.918009996	0	93.41994476	50.76999664	118.8669281	1.0
34	0	-3.918009996	0	75.45566559	50.94185638	105.0938339	1.0
35	0	-3.918009996	0	75.14329529	52.681633	110.5750122	1.0
[RightToeBase]
28	0	-0.5927900076	1.367989898	0	0	0	1.0
29	0	-0.5927900076	1.367989898	0	0	0	1.0
30	0	-0.5927900076	1.367989898	0	0	0	1.0
31	0	-0.5927900076	1.367989898	0	0	0	1.0
32	0	-0.5927900076	1.367989898	0	0	0	1.0
33	0	-0.5927900076	1.367989898	0	0	0	1.0
34	0	-0.5927900076	1.367989898	0	0	0	1.0
35	0	-0.5927900076	1.367989898	0	0	0	1.0
[EndOfFile]
